<svg width="188" height="48" viewBox="0 0 188 48" fill="none" xmlns="http://www.w3.org/2000/svg">
<path d="M1.72 47C1.29333 47 0.909334 46.8933 0.568 46.68C0.269334 46.4667 0.12 46.1253 0.12 45.656V1.56C0.12 1.13333 0.269334 0.813332 0.568 0.599998C0.866667 0.343999 1.208 0.216 1.592 0.216H24.312C24.7813 0.216 25.1227 0.386665 25.336 0.727997C25.5493 1.02666 25.656 1.34667 25.656 1.688C25.656 2.072 25.528 2.43466 25.272 2.776C25.0587 3.11733 24.7387 3.288 24.312 3.288H3.32V22.104H13.496C13.88 22.104 14.1787 22.2533 14.392 22.552C14.648 22.8507 14.776 23.2133 14.776 23.64C14.776 23.9813 14.6693 24.3013 14.456 24.6C14.2427 24.8987 13.9227 25.048 13.496 25.048H3.32V45.656C3.32 46.1253 3.14933 46.4667 2.808 46.68C2.46667 46.8933 2.104 47 1.72 47ZM42.5345 47.384C40.1452 47.384 37.9692 46.936 36.0065 46.04C34.0865 45.144 32.5505 43.736 31.3985 41.816C30.2892 39.8533 29.7345 37.2507 29.7345 34.008V13.592C29.7345 10.3493 30.2892 7.768 31.3985 5.848C32.5505 3.88533 34.0865 2.456 36.0065 1.56C37.9692 0.663999 40.1452 0.216 42.5345 0.216C44.9665 0.216 47.1638 0.663999 49.1265 1.56C51.0892 2.456 52.6252 3.88533 53.7345 5.848C54.8865 7.768 55.4625 10.3493 55.4625 13.592V34.008C55.4625 37.2507 54.8865 39.8533 53.7345 41.816C52.6252 43.736 51.0892 45.144 49.1265 46.04C47.1638 46.936 44.9665 47.384 42.5345 47.384ZM42.5345 44.312C45.5638 44.312 47.9318 43.48 49.6385 41.816C51.3878 40.1093 52.2625 37.5067 52.2625 34.008V13.592C52.2625 10.0933 51.4092 7.512 49.7025 5.848C47.9958 4.14133 45.6065 3.288 42.5345 3.288C39.5052 3.288 37.1372 4.14133 35.4305 5.848C33.7238 7.512 32.8705 10.0933 32.8705 13.592V34.008C32.8705 37.5067 33.7238 40.1093 35.4305 41.816C37.1372 43.48 39.5052 44.312 42.5345 44.312ZM62.569 47C62.185 47 61.865 46.872 61.609 46.616C61.353 46.36 61.225 46.0613 61.225 45.72C61.225 45.3787 61.3317 45.016 61.545 44.632L83.433 3.288H63.273C62.8463 3.288 62.505 3.13866 62.249 2.84C62.0357 2.49866 61.929 2.136 61.929 1.752C61.929 1.368 62.0357 1.02666 62.249 0.727997C62.505 0.386665 62.8463 0.216 63.273 0.216H86.249C86.7183 0.216 87.0597 0.322666 87.273 0.535999C87.4863 0.749332 87.593 1.02666 87.593 1.368C87.593 1.79467 87.465 2.24267 87.209 2.712L65.385 43.928H86.953C87.4223 43.928 87.7637 44.0987 87.977 44.44C88.1903 44.7387 88.297 45.08 88.297 45.464C88.297 45.848 88.1903 46.2107 87.977 46.552C87.7637 46.8507 87.4223 47 86.953 47H62.569ZM106.66 47.384C104.27 47.384 102.094 46.936 100.132 46.04C98.2115 45.144 96.6755 43.736 95.5235 41.816C94.4142 39.8533 93.8595 37.2507 93.8595 34.008V13.592C93.8595 10.3493 94.4142 7.768 95.5235 5.848C96.6755 3.88533 98.2115 2.456 100.132 1.56C102.094 0.663999 104.27 0.216 106.66 0.216C109.092 0.216 111.289 0.663999 113.252 1.56C115.214 2.456 116.75 3.88533 117.86 5.848C119.012 7.768 119.588 10.3493 119.588 13.592V34.008C119.588 37.2507 119.012 39.8533 117.86 41.816C116.75 43.736 115.214 45.144 113.252 46.04C111.289 46.936 109.092 47.384 106.66 47.384ZM106.66 44.312C109.689 44.312 112.057 43.48 113.764 41.816C115.513 40.1093 116.388 37.5067 116.388 34.008V13.592C116.388 10.0933 115.534 7.512 113.828 5.848C112.121 4.14133 109.732 3.288 106.66 3.288C103.63 3.288 101.262 4.14133 99.5555 5.848C97.8488 7.512 96.9955 10.0933 96.9955 13.592V34.008C96.9955 37.5067 97.8488 40.1093 99.5555 41.816C101.262 43.48 103.63 44.312 106.66 44.312ZM141.786 47.384C139.439 47.384 137.285 46.936 135.322 46.04C133.359 45.144 131.802 43.736 130.65 41.816C129.498 39.8533 128.922 37.2507 128.922 34.008V13.592C128.922 10.3493 129.519 7.768 130.714 5.848C131.909 3.88533 133.487 2.456 135.45 1.56C137.413 0.663999 139.567 0.216 141.914 0.216C144.687 0.216 147.013 0.706666 148.89 1.688C150.767 2.66933 152.197 3.94933 153.178 5.528C154.159 7.10667 154.65 8.792 154.65 10.584C154.65 11.4373 154.522 12.0133 154.266 12.312C154.01 12.568 153.605 12.696 153.05 12.696C152.41 12.696 151.983 12.5467 151.77 12.248C151.557 11.9493 151.45 11.6507 151.45 11.352C151.407 10.6267 151.258 9.816 151.002 8.92C150.746 7.98133 150.277 7.08533 149.594 6.232C148.954 5.37867 148.015 4.67467 146.778 4.12C145.541 3.56533 143.919 3.288 141.914 3.288C138.714 3.288 136.261 4.14133 134.554 5.848C132.89 7.512 132.058 10.0933 132.058 13.592V34.008C132.058 37.5493 132.911 40.152 134.618 41.816C136.325 43.48 138.842 44.312 142.17 44.312C144.175 44.312 145.775 44.056 146.97 43.544C148.165 42.9893 149.061 42.3067 149.658 41.496C150.255 40.6427 150.661 39.7467 150.874 38.808C151.13 37.8267 151.322 36.952 151.45 36.184C151.493 35.8 151.621 35.48 151.834 35.224C152.09 34.968 152.495 34.84 153.05 34.84C153.605 34.84 154.01 34.9893 154.266 35.288C154.522 35.5867 154.65 36.1627 154.65 37.016C154.65 38.7653 154.159 40.4507 153.178 42.072C152.197 43.6507 150.746 44.9307 148.826 45.912C146.906 46.8933 144.559 47.384 141.786 47.384ZM174.847 47.384C172.458 47.384 170.282 46.936 168.319 46.04C166.399 45.144 164.863 43.736 163.711 41.816C162.602 39.8533 162.047 37.2507 162.047 34.008V13.592C162.047 10.3493 162.602 7.768 163.711 5.848C164.863 3.88533 166.399 2.456 168.319 1.56C170.282 0.663999 172.458 0.216 174.847 0.216C177.279 0.216 179.476 0.663999 181.439 1.56C183.402 2.456 184.938 3.88533 186.047 5.848C187.199 7.768 187.775 10.3493 187.775 13.592V34.008C187.775 37.2507 187.199 39.8533 186.047 41.816C184.938 43.736 183.402 45.144 181.439 46.04C179.476 46.936 177.279 47.384 174.847 47.384ZM174.847 44.312C177.876 44.312 180.244 43.48 181.951 41.816C183.7 40.1093 184.575 37.5067 184.575 34.008V13.592C184.575 10.0933 183.722 7.512 182.015 5.848C180.308 4.14133 177.919 3.288 174.847 3.288C171.818 3.288 169.45 4.14133 167.743 5.848C166.036 7.512 165.183 10.0933 165.183 13.592V34.008C165.183 37.5067 166.036 40.1093 167.743 41.816C169.45 43.48 171.818 44.312 174.847 44.312Z" fill="black"/>
</svg>
